<!-- icon666.com - MILLIONS vector ICONS FREE --><svg id="Layer_1" enable-background="new 0 0 512 512" viewBox="0 0 512 512" xmlns="http://www.w3.org/2000/svg"><g clip-rule="evenodd" fill-rule="evenodd"><path d="m256.02-.001c-141.203 0-256.034 114.84-256.034 256.001s114.831 256.001 256.034 256.001c141.156 0 255.988-114.841 255.988-256.001-.001-141.161-114.832-256.001-255.988-256.001z" fill="#fff16b" style="fill: rgb(185, 28, 28);"></path><path d="m298.155 508.514c107.449-17.873 192.478-102.895 210.36-210.348l-137.205-137.205c-27.434-33.24-68.929-54.462-115.29-54.462-82.467 0-149.506 67.073-149.506 149.502 0 46.372 21.212 87.879 54.449 115.321z" fill="#ffd845" style="fill: rgb(162, 17, 17);"></path><path d="m188.839 268.332c-6.794 0-12.314-5.529-12.314-12.332 0-6.798 5.52-12.332 12.314-12.332 6.841 0 12.361 5.534 12.361 12.332-.001 6.803-5.521 12.332-12.361 12.332zm0-48.663c-20.003 0-36.327 16.3-36.327 36.332s16.324 36.332 36.327 36.332c20.051 0 36.374-16.3 36.374-36.332s-16.324-36.332-36.374-36.332zm67.181 115.802c-6.84 0-12.36-5.529-12.36-12.332 0-6.798 5.52-12.328 12.36-12.328 6.794 0 12.314 5.529 12.314 12.328-.001 6.803-5.52 12.332-12.314 12.332zm0-48.659c20.004 0 36.327 16.3 36.327 36.327 0 20.032-16.324 36.332-36.327 36.332-20.05 0-36.374-16.3-36.374-36.332 0-20.027 16.323-36.327 36.374-36.327zm67.134-18.48c-6.794 0-12.361-5.529-12.361-12.332 0-6.798 5.567-12.332 12.361-12.332s12.313 5.534 12.313 12.332c.001 6.803-5.519 12.332-12.313 12.332zm0-48.663c-20.051 0-36.327 16.3-36.327 36.332s16.277 36.332 36.327 36.332c20.003 0 36.327-16.3 36.327-36.332s-16.324-36.332-36.327-36.332zm-67.134-43.14c6.794 0 12.314 5.534 12.314 12.332s-5.52 12.332-12.314 12.332c-6.84 0-12.36-5.534-12.36-12.332-.001-6.798 5.519-12.332 12.36-12.332zm0 48.664c-20.05 0-36.374-16.3-36.374-36.332s16.324-36.332 36.374-36.332c20.004 0 36.327 16.3 36.327 36.332s-16.324 36.332-36.327 36.332zm0 156.31c69.21 0 125.493-56.302 125.493-125.503s-56.283-125.498-125.493-125.498-125.54 56.298-125.54 125.498 56.33 125.503 125.54 125.503zm149.46-125.503c0-82.429-67.04-149.502-149.46-149.502-82.467 0-149.506 67.073-149.506 149.502 0 82.439 67.04 149.502 149.506 149.502h130.07c6.605 0 11.983-5.369 11.983-12.002 0-6.629-5.378-11.997-11.983-11.997h-48.924c41.092-26.67 68.314-72.961 68.314-125.503z" fill="#fff"></path></g></svg>